<svg width="218" height="61" viewBox="0 0 218 61" fill="none" xmlns="http://www.w3.org/2000/svg">
<g clip-path="url(#clip0)">
<path d="M69.0999 19.4302V38.5302H65.3599V26.1402L59.9999 35.0002H59.5599L54.1999 26.1702V38.5302H50.3999V19.4302H54.2799L59.7599 28.4302L65.2099 19.4302H69.0999Z" fill="black"/>
<path d="M78.8699 38.9102C77.1861 38.9682 75.5228 38.5263 74.0899 37.6402C72.8217 36.8256 71.8611 35.6117 71.3599 34.1902L74.5799 32.3102C74.8834 33.2214 75.4839 34.0045 76.2853 34.5339C77.0867 35.0633 78.0426 35.3085 78.9999 35.2302C79.8144 35.2953 80.6282 35.0953 81.3199 34.6602C81.5592 34.4832 81.7509 34.2495 81.8778 33.9803C82.0047 33.711 82.0628 33.4144 82.047 33.1171C82.0311 32.8199 81.9418 32.5312 81.7869 32.2769C81.6321 32.0226 81.4167 31.8107 81.1599 31.6602C80.1412 31.1218 79.0596 30.712 77.9399 30.4402C77.2026 30.2287 76.478 29.9749 75.7699 29.6802C75.1452 29.4123 74.5517 29.077 73.9999 28.6802C73.3991 28.2524 72.9228 27.6726 72.6199 27.0002C72.2985 26.2805 72.1413 25.4982 72.1599 24.7102C72.1315 23.9285 72.2826 23.1507 72.6015 22.4366C72.9205 21.7224 73.3988 21.0907 73.9999 20.5902C75.2347 19.5403 76.8092 18.9752 78.4299 19.0002C79.8711 18.9697 81.2896 19.3626 82.5099 20.1302C83.699 20.9042 84.648 21.9953 85.2499 23.2802L82.0799 25.1102C81.8002 24.3713 81.2977 23.7376 80.6419 23.2968C79.9862 22.8561 79.2097 22.6301 78.4199 22.6502C77.764 22.6118 77.1148 22.7988 76.5799 23.1802C76.3666 23.3405 76.1947 23.5493 76.0782 23.7892C75.9616 24.0292 75.904 24.2935 75.9099 24.5602C75.9051 24.8465 75.9711 25.1295 76.1019 25.3842C76.2327 25.6389 76.4244 25.8573 76.6599 26.0202C77.5534 26.5688 78.5242 26.98 79.5399 27.2402L80.8599 27.6602C81.1599 27.7602 81.5699 27.9135 82.0899 28.1202C82.5068 28.2804 82.9084 28.4778 83.2899 28.7102C83.6389 28.9349 83.9729 29.1821 84.2899 29.4502C84.6222 29.7331 84.903 30.0714 85.1199 30.4502C85.5822 31.2747 85.8233 32.2049 85.8199 33.1502C85.8512 33.9517 85.6938 34.7494 85.3603 35.4789C85.0268 36.2085 84.5265 36.8494 83.8999 37.3502C82.4579 38.4437 80.6776 38.9958 78.8699 38.9102Z" fill="black"/>
<path d="M98.6001 38.5302L94.7401 31.9002H91.8801V38.5302H88.1201V19.4302H95.7601C96.5935 19.4276 97.4193 19.5893 98.1902 19.9061C98.961 20.2229 99.6619 20.6886 100.253 21.2765C100.843 21.8645 101.312 22.5631 101.633 23.3324C101.953 24.1018 102.119 24.9268 102.12 25.7602C102.126 26.9327 101.778 28.0796 101.12 29.0502C100.463 30.0471 99.5376 30.8376 98.4501 31.3302L102.68 38.5402L98.6001 38.5302ZM91.8801 22.9502V28.6002H95.7601C96.107 28.6023 96.4502 28.5292 96.7662 28.3859C97.0821 28.2427 97.3632 28.0326 97.5901 27.7702C98.0927 27.227 98.3651 26.5101 98.3501 25.7702C98.3704 25.0294 98.0973 24.3106 97.5901 23.7702C97.3614 23.5107 97.0797 23.3032 96.764 23.1617C96.4484 23.0203 96.106 22.9482 95.7601 22.9502H91.8801Z" fill="black"/>
<path d="M23.28 0.58C24.1734 0.328785 25.0819 0.135055 26 0V0L21.78 1.18C21.51 1.25 21.5 1.24 21.47 1.18C22.0441 0.899783 22.6479 0.685097 23.27 0.54L23.28 0.58ZM19.57 2.26C18.57 2.77 18.13 3.19 18.34 3.26C18.79 3.38 22.08 1.56 22.29 1.26C21.3592 1.47216 20.4612 1.8085 19.62 2.26H19.57ZM17.22 4.67C16.34 5.44 16.22 5.97 16.75 5.97C17.9 6 20.36 3.7 20 3.32C19.9448 3.3017 19.8852 3.3017 19.83 3.32C18.8613 3.56553 17.9682 4.04642 17.23 4.72L17.22 4.67ZM16.43 7.79C15.77 8.79 16.06 9.53 17.02 9.33C18.59 9 20.02 6.72 19.36 6.16C19.2619 6.067 19.1348 6.01051 19 6C18.4791 6.10542 17.9844 6.31358 17.5449 6.61234C17.1053 6.91109 16.7297 7.29445 16.44 7.74L16.43 7.79ZM17.26 11.39C16.77 12.79 17.84 13.65 19.26 12.96C20.98 12.12 21.4 9.85 20.26 9.41C20.1212 9.36421 19.9761 9.34059 19.83 9.34C19.2619 9.41988 18.7263 9.65288 18.2806 10.014C17.8349 10.3752 17.4959 10.8508 17.3 11.39H17.26ZM19.67 15.55C19.43 17.32 21.31 18.2 22.86 17.05C24.41 15.9 24.19 13.42 22.39 13.24H22.2C21.5783 13.2842 20.9898 13.5376 20.5305 13.9588C20.0711 14.3801 19.7678 14.9444 19.67 15.56V15.55ZM23.4 20.15C23.4269 20.6087 23.5877 21.0494 23.8625 21.4177C24.1372 21.7859 24.5139 22.0655 24.9459 22.222C25.3779 22.3784 25.8463 22.4047 26.2932 22.2977C26.74 22.1908 27.1457 21.9551 27.46 21.62C27.8106 21.315 28.0595 20.9101 28.1736 20.4596C28.2877 20.0091 28.2613 19.5345 28.0982 19.0994C27.935 18.6643 27.6428 18.2895 27.2606 18.0251C26.8785 17.7606 26.4247 17.6193 25.96 17.62C25.2894 17.6327 24.6497 17.9041 24.1745 18.3774C23.6993 18.8508 23.4254 19.4895 23.41 20.16L23.4 20.15ZM28.19 25.11C28.2594 25.6211 28.4754 26.1011 28.8118 26.4921C29.1482 26.8831 29.5906 27.1682 30.0856 27.3131C30.5806 27.458 31.107 27.4565 31.6011 27.3086C32.0952 27.1608 32.5359 26.873 32.87 26.48C33.1744 26.1027 33.3635 25.6455 33.4147 25.1634C33.4658 24.6813 33.3768 24.1947 33.1583 23.7619C32.9398 23.3291 32.6011 22.9685 32.1828 22.7234C31.7645 22.4783 31.2844 22.3591 30.8 22.38C30.4444 22.3707 30.0908 22.436 29.762 22.5715C29.4331 22.707 29.1362 22.9099 28.8904 23.167C28.6446 23.4241 28.4553 23.7298 28.3347 24.0644C28.2141 24.399 28.1648 24.7552 28.19 25.11ZM33.53 30.35C33.5928 30.8392 33.7951 31.3 34.1127 31.6774C34.4302 32.0548 34.8497 32.3328 35.321 32.4783C35.7922 32.6238 36.2954 32.6306 36.7705 32.4979C37.2455 32.3652 37.6723 32.0987 38 31.73C38.2802 31.4026 38.4747 31.0107 38.5659 30.5895C38.6571 30.1683 38.6422 29.731 38.5225 29.317C38.4028 28.9031 38.182 28.5253 37.8801 28.2178C37.5782 27.9103 37.2046 27.6826 36.7929 27.5553C36.3811 27.428 35.9442 27.405 35.5214 27.4885C35.0986 27.5719 34.7032 27.7591 34.3707 28.0333C34.0382 28.3074 33.7791 28.66 33.6166 29.0591C33.4542 29.4583 33.3935 29.8916 33.44 30.32L33.53 30.35ZM21 1.13L20.69 1.24C21.61 1.03 22.49 0.69 23.4 0.47C24.16 0.28 24.9 0.16 25.63 0L25.27 0.06C23.8227 0.31308 22.3956 0.670682 21 1.13ZM18.25 2.26C17.6248 2.52685 17.0312 2.86223 16.48 3.26C16.77 3.26 20.89 1.26 20.92 1.26C20.0008 1.5193 19.1044 1.85376 18.24 2.26H18.25ZM14.59 4.67C13.59 5.38 13.18 5.89 13.37 5.96C13.75 6.1 17.3 3.69 17.28 3.29H17.22C16.2739 3.61245 15.3858 4.08517 14.59 4.69V4.67ZM12.26 7.74C11.48 8.6 11.26 9.31 11.79 9.31C12.91 9.31 15.4 6.49 15.03 6.06C14.9797 6.01804 14.9154 5.99661 14.85 6C13.8407 6.32588 12.9433 6.92879 12.26 7.74ZM11.45 11.39C10.8 12.55 11.07 13.39 12.02 13.16C13.71 12.75 15.16 9.92 14.31 9.41C14.2167 9.36402 14.114 9.34008 14.01 9.34C13.4627 9.4814 12.9515 9.73721 12.5102 10.0906C12.069 10.4439 11.7076 10.8868 11.45 11.39ZM12.25 15.55C11.78 17.1 12.83 18.05 14.19 17.3C15.9 16.36 16.49 13.65 15.08 13.3C14.9802 13.291 14.8798 13.291 14.78 13.3C14.1842 13.4131 13.6319 13.6902 13.1849 14.1C12.738 14.5099 12.4142 15.0363 12.25 15.62V15.55ZM14.58 20.21C14.4993 20.5997 14.5479 21.0051 14.7184 21.3647C14.8889 21.7243 15.1719 22.0186 15.5246 22.2029C15.8774 22.3872 16.2806 22.4514 16.6731 22.3859C17.0657 22.3205 17.4262 22.1288 17.7 21.84C19.32 20.52 19.06 17.84 17.28 17.67H17.09C16.4455 17.7458 15.846 18.0386 15.3899 18.5001C14.9338 18.9617 14.6482 19.5647 14.58 20.21ZM18.24 25.16C18.2276 25.6235 18.3581 26.0796 18.6137 26.4664C18.8693 26.8533 19.2378 27.1521 19.669 27.3224C20.1003 27.4927 20.5735 27.5263 21.0245 27.4185C21.4754 27.3108 21.8823 27.0669 22.19 26.72C23.62 25.26 23.03 22.54 20.75 22.43C20.0595 22.4713 19.4119 22.7789 18.9437 23.2881C18.4755 23.7974 18.2232 24.4684 18.24 25.16ZM22.9 30.4C22.9328 30.9131 23.1205 31.4041 23.4383 31.8082C23.7561 32.2124 24.1891 32.5105 24.68 32.6633C25.1709 32.8161 25.6966 32.8163 26.1876 32.664C26.6786 32.5116 27.1118 32.2138 27.43 31.81C27.7378 31.4258 27.9321 30.9631 27.9908 30.4743C28.0496 29.9855 27.9705 29.49 27.7625 29.0438C27.5544 28.5976 27.2258 28.2184 26.8136 27.9492C26.4014 27.6799 25.9222 27.5312 25.43 27.52C25.0678 27.5232 24.7103 27.6026 24.3808 27.753C24.0512 27.9035 23.7571 28.1217 23.5175 28.3934C23.2779 28.665 23.0982 28.9841 22.9901 29.3299C22.882 29.6756 22.8479 30.0402 22.89 30.4H22.9ZM28.1 35.63C28.1767 36.1321 28.3956 36.6018 28.7308 36.9835C29.066 37.3652 29.5034 37.6429 29.9915 37.7839C30.4795 37.9248 30.9977 37.9231 31.4847 37.7788C31.9718 37.6346 32.4074 37.3539 32.74 36.97C33.0544 36.5971 33.2543 36.1414 33.3157 35.6575C33.377 35.1737 33.2973 34.6825 33.0859 34.2429C32.8746 33.8034 32.5408 33.4343 32.1246 33.18C31.7084 32.9258 31.2275 32.7973 30.74 32.81C30.378 32.8028 30.0185 32.8721 29.6852 33.0135C29.3518 33.1549 29.0521 33.3652 28.8057 33.6305C28.5593 33.8958 28.3717 34.2102 28.2552 34.553C28.1388 34.8959 28.0961 35.2595 28.13 35.62L28.1 35.63ZM12.2 5.76C12.1272 5.83466 12.0603 5.91491 12 6C12.15 5.95 16.12 3.33 16.13 3.31L15.8 3.48C14.5486 4.15564 13.3457 4.91748 12.2 5.76ZM10.07 7.76C9.07 8.67 8.66 9.32 8.87 9.33C9.27 9.33 12.57 6.33 12.43 6.02C11.5606 6.46894 10.7702 7.05666 10.09 7.76H10.07ZM7.7 11.38C6.95 12.44 6.76 13.28 7.29 13.18C8.29 12.99 10.67 9.78 10.13 9.37C10.0938 9.36215 10.0562 9.36215 10.02 9.37C9.44 9.43 8.36 10.48 7.7 11.42V11.38ZM6.87 15.58C6.27 16.95 6.6 17.9 7.53 17.5C8.99 16.87 10.36 13.73 9.37 13.3C9.30366 13.2907 9.23634 13.2907 9.17 13.3C8.25 13.38 7.27 14.7 6.87 15.62V15.58ZM7.65 20.21C7.28 21.91 8.25 22.92 9.48 22.11C11.15 21.01 11.55 17.9 10.05 17.67H9.92C8.73 17.75 7.92 19.21 7.66 20.21H7.65ZM10 25.08C9.9 27.08 11.62 28.08 13 26.82C14.38 25.56 14.23 22.47 12.27 22.35C10.76 22.43 10 24 10 25.08ZM13.65 30.32C13.82 32.54 16.06 33.51 17.39 31.93C18.72 30.35 18 27.56 15.85 27.44C15.5152 27.4818 15.1921 27.5898 14.8995 27.7578C14.6069 27.9258 14.3508 28.1505 14.146 28.4186C13.9412 28.6867 13.7918 28.9929 13.7067 29.3194C13.6215 29.6459 13.6022 29.986 13.65 30.32ZM18.27 35.55C18.62 37.75 21.27 38.55 22.52 36.89C22.7869 36.5006 22.9454 36.0471 22.9791 35.5762C23.0129 35.1052 22.9207 34.6338 22.712 34.2103C22.5033 33.7868 22.1856 33.4265 21.7916 33.1663C21.3976 32.9062 20.9414 32.7556 20.47 32.73C20.1316 32.7447 19.8004 32.8328 19.4993 32.9881C19.1982 33.1434 18.9344 33.3621 18.7262 33.6293C18.5179 33.8965 18.3702 34.2058 18.2932 34.5356C18.2161 34.8655 18.2116 35.2082 18.28 35.54L18.27 35.55ZM23.38 40.48C23.4264 40.9535 23.6113 41.4028 23.9116 41.7718C24.2119 42.1408 24.6143 42.413 25.0686 42.5546C25.5228 42.6961 26.0086 42.7006 26.4654 42.5675C26.9221 42.4345 27.3295 42.1697 27.6367 41.8064C27.9438 41.443 28.137 40.9972 28.1922 40.5247C28.2473 40.0521 28.162 39.5738 27.9468 39.1495C27.7316 38.7252 27.3961 38.3738 26.9823 38.1391C26.5684 37.9044 26.0946 37.7969 25.62 37.83C25.2868 37.8207 24.9558 37.8865 24.6515 38.0225C24.3472 38.1586 24.0775 38.3614 23.8623 38.616C23.6472 38.8706 23.4921 39.1703 23.4086 39.493C23.3251 39.8157 23.3153 40.153 23.38 40.48ZM5.37 12.9C5.30355 12.9852 5.24967 13.0795 5.21 13.18C6.29744 11.9526 7.32208 10.671 8.28 9.34C8.28 9.34 8.22 9.34 8.01 9.59C7.05507 10.6314 6.17298 11.7374 5.37 12.9ZM4 15.54C3.37 16.74 3.15 17.65 3.51 17.54C4.26 17.31 6.33 13.48 5.84 13.23C5.44 13.3 4.6 14.49 4.04 15.55L4 15.54ZM3.17 20.14C2.72 21.65 2.98 22.66 3.71 22.22C4.89 21.5 5.95 17.83 5 17.59C4.27 17.67 3.51 19.13 3.21 20.13L3.17 20.14ZM3.99 25.08C3.8 26.87 4.69 27.95 5.66 27.08C6.92 25.98 7.21 22.46 5.74 22.33C4.74 22.42 4.11 23.98 3.99 25.06V25.08ZM6.3 30.31C6.41 32.31 7.84 33.31 8.89 32.26C10.15 30.97 9.79 27.57 7.99 27.43C6.72 27.52 6.24 29.17 6.3 30.31ZM10 35.54C10.39 37.62 12.44 38.54 13.43 37.07C14.42 35.6 13.55 32.85 11.63 32.73C10.16 32.82 9.79 34.43 10 35.54ZM14.61 40.48C15.18 42.55 17.56 43.32 18.47 41.73C18.6514 41.3306 18.7353 40.8938 18.7149 40.4557C18.6945 40.0175 18.5703 39.5904 18.3526 39.2096C18.1348 38.8288 17.8298 38.5051 17.4625 38.2653C17.0952 38.0254 16.6762 37.8763 16.24 37.83C15.9381 37.8542 15.6461 37.9495 15.3881 38.108C15.13 38.2666 14.9131 38.484 14.7551 38.7424C14.5971 39.0009 14.5025 39.293 14.4791 39.595C14.4556 39.897 14.5039 40.2002 14.62 40.48H14.61ZM19.62 45.06C20.25 47.06 22.79 47.68 23.62 46.06C23.7659 45.6801 23.8173 45.2703 23.7696 44.8661C23.722 44.4619 23.5768 44.0754 23.3465 43.7398C23.1162 43.4042 22.8078 43.1297 22.4478 42.9398C22.0878 42.75 21.687 42.6505 21.28 42.65C20.9877 42.6456 20.6989 42.714 20.4397 42.8491C20.1805 42.9842 19.959 43.1818 19.7953 43.4239C19.6316 43.666 19.5307 43.9451 19.5018 44.236C19.473 44.5269 19.517 44.8204 19.63 45.09L19.62 45.06ZM1.13 22C1.09496 22.1064 1.07806 22.218 1.08 22.33C1.80771 20.826 2.36775 19.2465 2.75 17.62C2.7 17.67 2.68 17.69 2.56 17.94C1.98806 19.2579 1.5102 20.6146 1.13 22ZM0.76 25.08C0.53 26.57 0.68 27.64 1.08 27.35C1.68 26.92 2.64 22.52 1.83 22.35C1.37 22.44 0.93 24 0.77 25.08H0.76ZM1.56 30.32C1.61 32.06 2.3 33.16 2.92 32.51C3.81 31.57 3.76 27.59 2.57 27.45C1.81 27.54 1.52 29.19 1.57 30.33L1.56 30.32ZM4 35.54C4.37 37.42 5.63 38.42 6.32 37.39C7.15 36.15 6.4 32.86 4.95 32.73C3.95 32.82 3.78 34.43 4 35.54ZM7.7 40.48C8.37 42.48 10.16 43.28 10.7 41.91C11.24 40.54 10.15 37.91 8.56 37.83C7.35 37.92 7.3 39.43 7.65 40.48H7.7ZM12.25 45.06C13.1 46.96 15.16 47.65 15.64 46.21C15.7162 45.8097 15.7117 45.3982 15.6267 44.9997C15.5417 44.6011 15.3779 44.2236 15.1451 43.8892C14.9122 43.5548 14.6149 43.2703 14.2706 43.0523C13.9263 42.8344 13.5419 42.6874 13.14 42.62C11.8 42.7 11.81 44.1 12.24 45.06H12.25ZM17.24 49.2C18.09 50.83 20.29 51.63 20.69 50.07C20.7655 49.3314 20.5445 48.5931 20.0757 48.0174C19.6069 47.4416 18.9286 47.0757 18.19 47C16.82 47.08 16.83 48.33 17.28 49.19L17.24 49.2ZM0 30.23C0 30.93 0.0233333 31.6267 0.07 32.32C0.07126 32.4391 0.0915145 32.5573 0.13 32.67C0.340102 30.9296 0.340102 29.1703 0.13 27.43C0.13 27.49 0.08 27.51 0.05 27.79C0.0166667 28.5967 0 29.41 0 30.23ZM0.79 35.54C1.08 37.11 1.61 38.13 1.9 37.7C2.34 37.02 1.72 32.89 0.9 32.7C0.46 32.79 0.55 34.4 0.76 35.51L0.79 35.54ZM3.19 40.45C3.79 42.08 4.81 43.04 5.19 42.29C5.65 41.29 4.45 37.93 3.34 37.8C2.63 37.89 2.85 39.4 3.23 40.45H3.19ZM6.95 45.03C7.8 46.61 9.18 47.46 9.5 46.6C9.91 45.5 8.4 42.7 7.04 42.6C6.12 42.68 6.44 44.08 6.95 45.04V45.03ZM11.53 49.18C12.47 50.54 14.14 51.46 14.4 50.47C14.66 49.48 13.13 47.11 11.6 47C10.6 47.08 10.93 48.33 11.52 49.19L11.53 49.18ZM16.52 52.82C17.52 54.04 19.26 54.82 19.4 53.82C19.54 52.82 18 51 16.57 50.92C15.57 50.98 15.77 51.92 16.48 52.83L16.52 52.82ZM2.48 42.26C2.52283 42.3703 2.57999 42.4746 2.65 42.57C2.27619 40.9341 1.72283 39.3444 1 37.83C1 37.88 1 37.9 1 38.17C1.37276 39.5617 1.84394 40.9251 2.41 42.25L2.48 42.26ZM4.07 45.05C4.8 46.34 5.61 47.25 5.72 46.88C5.89 46.29 4.05 42.74 3.32 42.61C2.98 42.69 3.44 43.94 4.07 45.05ZM7.79 49.2C8.79 50.5 9.99 51.29 10.01 50.69C10.01 49.92 8.01 47.12 7.01 47.01C6.47 47.08 7.01 48.2 7.76 49.2H7.79ZM12.32 52.83C13.32 53.83 14.77 54.65 14.82 54.1C14.87 53.55 12.8 51 11.6 50.92C10.96 50.98 11.47 51.92 12.35 52.83H12.32ZM17.35 55.83C18.43 56.68 19.94 57.33 19.85 56.83C19.1446 55.5874 17.9763 54.6742 16.6 54.29C15.96 54.29 16.41 55.08 17.19 55.74L17.35 55.87V55.83ZM7.78 50.64C7.99 50.87 8.03 50.88 8.05 50.9C7.11496 49.5382 6.09634 48.2357 5 47C5 47 5 47.06 5.15 47.29C5.9386 48.4651 6.80733 49.5845 7.75 50.64H7.78ZM10.14 52.83C10.7103 53.4313 11.3888 53.9198 12.14 54.27C12.28 54.01 9.14 51.01 8.61 50.93C8.35 50.99 9.2 51.99 10.13 52.84L10.14 52.83ZM14.67 55.84C15.355 56.3885 16.1495 56.784 17 57C15.9171 55.843 14.6107 54.9177 13.16 54.28C12.84 54.28 13.42 54.92 14.16 55.46L14.71 55.86L14.67 55.84ZM19.71 58.25C20.4362 58.6499 21.2234 58.927 22.04 59.07C20.8673 58.1915 19.5559 57.5155 18.16 57.07C18.1 57.07 17.9 57.07 18.27 57.41C18.7126 57.7526 19.1923 58.0444 19.7 58.28L19.71 58.25ZM15.48 56.88L15.79 57.04C15.67 56.93 11.73 54.32 11.71 54.31C11.69 54.3 11.71 54.31 11.95 54.52C13.0708 55.3872 14.2503 56.1758 15.48 56.88ZM18.39 58.28C19.1137 58.6178 19.8626 58.8987 20.63 59.12C20.53 59.01 16.4 57.12 16.21 57.07C16.8905 57.5516 17.6256 57.9511 18.4 58.26L18.39 58.28ZM23.4 59.92C24.1565 60.1279 24.9245 60.2916 25.7 60.41L21.6 59.21C21.4669 59.1657 21.3294 59.1355 21.19 59.12C21.8985 59.4729 22.6474 59.7382 23.42 59.91L23.4 59.92ZM24.94 60.33L25.29 60.39C24.41 60.18 23.53 60.02 22.66 59.78C21.79 59.54 21.18 59.28 20.42 59.1L20.73 59.22C22.105 59.6901 23.5119 60.0611 24.94 60.33Z" fill="url(#paint0_linear)"/>
<path d="M56.2599 45.3001C56.2702 45.6979 56.1959 46.0935 56.0419 46.4605C55.8879 46.8275 55.6577 47.1576 55.3665 47.429C55.0753 47.7003 54.7298 47.9067 54.3528 48.0345C53.9758 48.1622 53.576 48.2084 53.1799 48.1701H51.3599V51.1701H50.3599V42.4701H53.2299C53.6186 42.4395 54.0095 42.4902 54.3776 42.619C54.7458 42.7477 55.083 42.9516 55.368 43.2178C55.653 43.484 55.8795 43.8066 56.0331 44.1651C56.1866 44.5236 56.2638 44.9101 56.2599 45.3001ZM55.2599 45.3001C55.2701 45.0409 55.2243 44.7825 55.1254 44.5427C55.0266 44.3029 54.877 44.0873 54.6871 43.9107C54.4972 43.734 54.2713 43.6005 54.0249 43.5193C53.7786 43.4381 53.5176 43.411 53.2599 43.4401H51.3599V47.1701H53.1899C53.4508 47.204 53.716 47.1803 53.9668 47.1006C54.2176 47.0209 54.4479 46.8873 54.6414 46.709C54.835 46.5307 54.9871 46.3121 55.087 46.0687C55.1869 45.8253 55.2323 45.5629 55.2199 45.3001H55.2599Z" fill="#474748"/>
<path d="M60.3802 48.2302H58.4702V51.1502H57.4702V42.4502H60.5702C61.2476 42.4655 61.8985 42.7166 62.4105 43.1604C62.9225 43.6042 63.2637 44.2127 63.3751 44.8811C63.4864 45.5494 63.3611 46.2357 63.0207 46.8215C62.6802 47.4074 62.146 47.8561 61.5102 48.0902L63.5102 51.1502H62.3102L60.3802 48.2302ZM58.4702 47.2302H60.5302C61.0341 47.2302 61.5174 47.03 61.8737 46.6737C62.23 46.3174 62.4302 45.8341 62.4302 45.3302C62.4302 44.8263 62.23 44.343 61.8737 43.9867C61.5174 43.6304 61.0341 43.4302 60.5302 43.4302H58.4702V47.2302Z" fill="#474748"/>
<path d="M64.3301 46.8002C64.3459 45.9356 64.6167 45.0948 65.1086 44.3835C65.6004 43.6721 66.2914 43.1219 67.0949 42.8019C67.8983 42.4819 68.7783 42.4063 69.6246 42.5846C70.4708 42.7629 71.2455 43.1872 71.8515 43.8042C72.4575 44.4212 72.8677 45.2035 73.0307 46.0528C73.1937 46.9021 73.1023 47.7807 72.7678 48.5782C72.4333 49.3757 71.8707 50.0566 71.1506 50.5356C70.4305 51.0145 69.585 51.2701 68.7201 51.2702C68.1372 51.269 67.5604 51.1519 67.0231 50.9258C66.4858 50.6998 65.9988 50.3692 65.5904 49.9533C65.1819 49.5374 64.8602 49.0445 64.6438 48.5032C64.4275 47.9619 64.3209 47.3831 64.3301 46.8002ZM72.0601 46.8002C72.0327 46.1467 71.814 45.5157 71.4312 44.9853C71.0484 44.455 70.5182 44.0488 69.9066 43.817C69.295 43.5852 68.6287 43.5381 67.9906 43.6816C67.3524 43.825 66.7704 44.1527 66.3168 44.6239C65.8632 45.0951 65.5579 45.6892 65.4389 46.3323C65.3198 46.9754 65.3922 47.6394 65.6471 48.2418C65.902 48.8441 66.3281 49.3584 66.8726 49.7208C67.4171 50.0832 68.0561 50.2777 68.7101 50.2802C69.1592 50.2738 69.6026 50.1784 70.0146 49.9996C70.4266 49.8208 70.7991 49.5621 71.1106 49.2386C71.4221 48.915 71.6663 48.5329 71.8293 48.1144C71.9923 47.6959 72.0708 47.2492 72.0601 46.8002Z" fill="#474748"/>
<path d="M83.3401 42.4399V51.1399H82.2801V44.3599L79.1701 49.3599H78.6901L75.5801 44.3599V51.1499H74.5801V42.4499H75.5801L78.9401 47.8399L82.2901 42.4499L83.3401 42.4399Z" fill="#474748"/>
<path d="M84.8398 42.4399H85.8898V51.1399H84.8398V42.4399Z" fill="#474748"/>
<path d="M88.28 48.7201C88.3032 49.1535 88.4973 49.56 88.8197 49.8505C89.1421 50.141 89.5665 50.2919 90 50.2701C91 50.2701 91.62 49.7401 91.62 49.0201C91.62 48.1001 90.79 47.6601 89.75 47.1301C88.22 46.3101 87.4 45.7501 87.4 44.4501C87.416 44.145 87.4939 43.8462 87.6287 43.572C87.7635 43.2978 87.9525 43.0537 88.1843 42.8546C88.4162 42.6555 88.6859 42.5055 88.9774 42.4136C89.2688 42.3218 89.5759 42.29 89.88 42.3201C90.5254 42.3067 91.1499 42.5496 91.6166 42.9957C92.0833 43.4418 92.3542 44.0547 92.37 44.7001H91.32C91.3095 44.3288 91.1539 43.9763 90.8866 43.7183C90.6193 43.4603 90.2615 43.3174 89.89 43.3201C89.7181 43.3023 89.5444 43.3191 89.3791 43.3697C89.2139 43.4202 89.0605 43.5035 88.928 43.6145C88.7956 43.7255 88.6868 43.862 88.6081 44.0158C88.5294 44.1697 88.4824 44.3378 88.47 44.5101C88.47 45.4201 89.16 45.7201 90.11 46.1901C91.64 46.9701 92.68 47.7001 92.68 49.0701C92.68 50.4401 91.53 51.2701 90 51.2701C89.6492 51.2862 89.2988 51.233 88.9687 51.1135C88.6385 50.9941 88.3352 50.8106 88.0761 50.5738C87.8169 50.3369 87.607 50.0513 87.4584 49.7332C87.3098 49.4151 87.2254 49.0709 87.21 48.7201H88.28Z" fill="#474748"/>
<path d="M94.9999 43.4402V46.1502H97.7899V47.1502H94.9999V50.1502H98.6099V51.1502H93.9199V42.4502H98.5799V43.4502L94.9999 43.4402Z" fill="#474748"/>
<path d="M110.24 46.7999C110.274 47.3615 110.193 47.9242 110 48.4529C109.807 48.9816 109.508 49.465 109.121 49.873C108.733 50.2811 108.266 50.605 107.748 50.8247C107.23 51.0443 106.672 51.155 106.11 51.1499H103.3V42.4499H106.11C106.672 42.4447 107.23 42.5554 107.748 42.7751C108.266 42.9947 108.733 43.3187 109.121 43.7267C109.508 44.1348 109.807 44.6182 110 45.1469C110.193 45.6756 110.274 46.2383 110.24 46.7999ZM109.19 46.7999C109.23 46.3722 109.181 45.9407 109.044 45.5334C108.908 45.1261 108.687 44.752 108.397 44.4353C108.106 44.1186 107.753 43.8664 107.359 43.6949C106.965 43.5234 106.539 43.4366 106.11 43.4399H104.35V50.1499H106.11C106.538 50.1531 106.963 50.0664 107.356 49.8956C107.749 49.7247 108.102 49.4734 108.393 49.1578C108.683 48.8422 108.904 48.4694 109.041 48.0633C109.178 47.6571 109.229 47.2268 109.19 46.7999Z" fill="#474748"/>
<path d="M112.37 43.4402V46.1502H115.16V47.1502H112.37V50.1502H116V51.1502H111.34V42.4502H116V43.4502L112.37 43.4402Z" fill="#474748"/>
<path d="M122.11 50.1502V51.1502H117.5V42.4502H118.55V50.1602L122.11 50.1502Z" fill="#474748"/>
<path d="M123.31 42.4399H124.36V51.1399H123.31V42.4399Z" fill="#474748"/>
<path d="M132.81 42.4399L129.76 51.1399H128.53L125.48 42.4399H126.57L129.14 49.8699L131.71 42.4399H132.81Z" fill="#474748"/>
<path d="M134.88 43.4402V46.1502H137.67V47.1502H134.88V50.1502H138.49V51.1502H133.83V42.4502H138.49V43.4502L134.88 43.4402Z" fill="#474748"/>
<path d="M142.8 48.2302H140.89V51.1502H139.89V42.4502H142.99C143.668 42.4655 144.318 42.7166 144.83 43.1604C145.342 43.6042 145.684 44.2127 145.795 44.8811C145.906 45.5494 145.781 46.2357 145.441 46.8215C145.1 47.4074 144.566 47.8561 143.93 48.0902L145.93 51.1502H144.73L142.8 48.2302ZM140.89 47.2302H142.95C143.454 47.2302 143.937 47.03 144.294 46.6737C144.65 46.3174 144.85 45.8341 144.85 45.3302C144.85 44.8263 144.65 44.343 144.294 43.9867C143.937 43.6304 143.454 43.4302 142.95 43.4302H140.89V47.2302Z" fill="#474748"/>
<path d="M148.28 43.4402V46.1502H151.07V47.1502H148.28V50.1502H151.89V51.1502H147.23V42.4502H151.89V43.4502L148.28 43.4402Z" fill="#474748"/>
<path d="M160.18 46.7999C160.215 47.3615 160.133 47.9242 159.94 48.4529C159.748 48.9816 159.449 49.465 159.061 49.873C158.674 50.2811 158.207 50.605 157.689 50.8247C157.171 51.0443 156.613 51.155 156.05 51.1499H153.24V42.4499H156.05C156.613 42.4447 157.171 42.5554 157.689 42.7751C158.207 42.9947 158.674 43.3187 159.061 43.7267C159.449 44.1348 159.748 44.6182 159.94 45.1469C160.133 45.6756 160.215 46.2383 160.18 46.7999ZM159.13 46.7999C159.171 46.3722 159.121 45.9407 158.985 45.5334C158.848 45.1261 158.627 44.752 158.337 44.4353C158.047 44.1186 157.693 43.8664 157.299 43.6949C156.905 43.5234 156.48 43.4366 156.05 43.4399H154.29V50.1499H156.05C156.479 50.1531 156.904 50.0664 157.297 49.8956C157.69 49.7247 158.043 49.4734 158.333 49.1578C158.623 48.8422 158.844 48.4694 158.981 48.0633C159.119 47.6571 159.169 47.2268 159.13 46.7999Z" fill="#474748"/>
<path d="M116.777 26.884V25.484C115.573 24.224 113.949 23.552 112.129 23.552C108.013 23.552 104.737 26.884 104.737 30.888C104.737 34.948 108.013 38.28 112.129 38.28C113.949 38.28 115.573 37.608 116.777 36.348V34.948C115.601 36.18 114.145 36.992 112.269 36.992C108.965 36.992 106.137 34.304 106.137 30.888C106.137 27.528 108.965 24.84 112.269 24.84C114.145 24.84 115.601 25.652 116.777 26.884ZM127.006 38.28C131.15 38.28 134.426 34.976 134.426 30.888C134.426 26.856 131.15 23.552 127.006 23.552C122.834 23.552 119.53 26.856 119.53 30.888C119.53 34.976 122.834 38.28 127.006 38.28ZM127.006 36.992C123.618 36.992 120.874 34.248 120.874 30.888C120.874 27.584 123.618 24.84 127.006 24.84C130.366 24.84 133.082 27.584 133.082 30.888C133.082 34.248 130.366 36.992 127.006 36.992ZM136.866 34.444C137.37 36.852 139.47 38.28 142.354 38.28C145.35 38.28 147.31 36.796 147.31 34.668C147.31 32.26 145.378 31.28 143.222 30.384C140.534 29.208 138.714 28.732 138.714 27.024C138.714 25.54 140.282 24.728 141.71 24.728C143.362 24.728 144.706 25.652 144.93 27.192H146.274C146.05 25.036 144.23 23.552 141.682 23.552C139.526 23.552 137.342 24.84 137.342 27.024C137.342 29.236 139.358 30.132 141.122 30.832C144.174 32.12 145.938 32.596 145.938 34.668C145.938 36.068 144.594 37.076 142.382 37.076C140.114 37.076 138.742 35.984 138.21 34.444H136.866ZM167.28 23.552C164.648 23.552 162.828 25.344 161.764 27.304C161.232 25.036 159.636 23.552 157.228 23.552C154.792 23.552 153.028 25.148 151.936 26.968L151.852 23.832H150.592V38H151.936V30.636C152.188 27.584 154.064 24.84 156.864 24.84C159.272 24.84 160.644 26.744 160.644 29.572V38H161.988V30.636C162.24 27.584 164.088 24.84 166.916 24.84C169.324 24.84 170.668 26.744 170.668 29.572V38H172.012V29.236C172.012 25.876 170.304 23.552 167.28 23.552ZM182.514 38.28C186.658 38.28 189.934 34.976 189.934 30.888C189.934 26.856 186.658 23.552 182.514 23.552C178.342 23.552 175.038 26.856 175.038 30.888C175.038 34.976 178.342 38.28 182.514 38.28ZM182.514 36.992C179.126 36.992 176.382 34.248 176.382 30.888C176.382 27.584 179.126 24.84 182.514 24.84C185.874 24.84 188.59 27.584 188.59 30.888C188.59 34.248 185.874 36.992 182.514 36.992ZM192.374 34.444C192.878 36.852 194.978 38.28 197.862 38.28C200.858 38.28 202.818 36.796 202.818 34.668C202.818 32.26 200.886 31.28 198.73 30.384C196.042 29.208 194.222 28.732 194.222 27.024C194.222 25.54 195.79 24.728 197.218 24.728C198.87 24.728 200.214 25.652 200.438 27.192H201.782C201.558 25.036 199.738 23.552 197.19 23.552C195.034 23.552 192.85 24.84 192.85 27.024C192.85 29.236 194.866 30.132 196.63 30.832C199.682 32.12 201.446 32.596 201.446 34.668C201.446 36.068 200.102 37.076 197.89 37.076C195.622 37.076 194.25 35.984 193.718 34.444H192.374Z" fill="black"/>
<path d="M116.777 26.884L116.632 27.0221L116.977 27.3832V26.884H116.777ZM116.777 25.484H116.977V25.4038L116.921 25.3458L116.777 25.484ZM116.777 36.348L116.921 36.4862L116.977 36.4282V36.348H116.777ZM116.777 34.948H116.977V34.4488L116.632 34.8099L116.777 34.948ZM116.977 26.884V25.484H116.577V26.884H116.977ZM116.921 25.3458C115.678 24.0442 114 23.352 112.129 23.352V23.752C113.897 23.752 115.468 24.4038 116.632 25.6222L116.921 25.3458ZM112.129 23.352C107.902 23.352 104.537 26.7735 104.537 30.888H104.937C104.937 26.9945 108.123 23.752 112.129 23.752V23.352ZM104.537 30.888C104.537 35.0575 107.901 38.48 112.129 38.48V38.08C108.124 38.08 104.937 34.8385 104.937 30.888H104.537ZM112.129 38.48C114 38.48 115.678 37.7878 116.921 36.4862L116.632 36.2098C115.468 37.4282 113.897 38.08 112.129 38.08V38.48ZM116.977 36.348V34.948H116.577V36.348H116.977ZM116.632 34.8099C115.485 36.0117 114.078 36.792 112.269 36.792V37.192C114.211 37.192 115.717 36.3483 116.921 35.0861L116.632 34.8099ZM112.269 36.792C109.072 36.792 106.337 34.19 106.337 30.888H105.937C105.937 34.418 108.858 37.192 112.269 37.192V36.792ZM106.337 30.888C106.337 27.6432 109.07 25.04 112.269 25.04V24.64C108.859 24.64 105.937 27.4128 105.937 30.888H106.337ZM112.269 25.04C114.078 25.04 115.485 25.8203 116.632 27.0221L116.921 26.7459C115.717 25.4837 114.211 24.64 112.269 24.64V25.04ZM127.006 38.48C131.26 38.48 134.626 35.0865 134.626 30.888H134.226C134.226 34.8655 131.039 38.08 127.006 38.08V38.48ZM134.626 30.888C134.626 26.7446 131.259 23.352 127.006 23.352V23.752C131.04 23.752 134.226 26.9674 134.226 30.888H134.626ZM127.006 23.352C122.726 23.352 119.33 26.7431 119.33 30.888H119.73C119.73 26.9689 122.942 23.752 127.006 23.752V23.352ZM119.33 30.888C119.33 35.0879 122.725 38.48 127.006 38.48V38.08C122.943 38.08 119.73 34.8641 119.73 30.888H119.33ZM127.006 36.792C123.728 36.792 121.074 34.1369 121.074 30.888H120.674C120.674 34.3591 123.508 37.192 127.006 37.192V36.792ZM121.074 30.888C121.074 27.6962 123.726 25.04 127.006 25.04V24.64C123.509 24.64 120.674 27.4718 120.674 30.888H121.074ZM127.006 25.04C130.255 25.04 132.882 27.6945 132.882 30.888H133.282C133.282 27.4735 130.476 24.64 127.006 24.64V25.04ZM132.882 30.888C132.882 34.1387 130.254 36.792 127.006 36.792V37.192C130.477 37.192 133.282 34.3573 133.282 30.888H132.882ZM136.866 34.444V34.244H136.62L136.67 34.485L136.866 34.444ZM143.222 30.384L143.142 30.5673L143.145 30.5687L143.222 30.384ZM144.93 27.192L144.732 27.2208L144.757 27.392H144.93V27.192ZM146.274 27.192V27.392H146.496L146.473 27.1713L146.274 27.192ZM141.122 30.832L141.199 30.6477L141.195 30.6461L141.122 30.832ZM138.21 34.444L138.399 34.3787L138.352 34.244H138.21V34.444ZM136.67 34.485C137.198 37.0099 139.402 38.48 142.354 38.48V38.08C139.537 38.08 137.541 36.6941 137.061 34.403L136.67 34.485ZM142.354 38.48C143.882 38.48 145.166 38.1016 146.074 37.433C146.986 36.7613 147.51 35.8003 147.51 34.668H147.11C147.11 35.6637 146.654 36.5087 145.837 37.111C145.015 37.7164 143.821 38.08 142.354 38.08V38.48ZM147.51 34.668C147.51 33.3995 146.996 32.4997 146.206 31.8084C145.426 31.1263 144.375 30.6467 143.298 30.1993L143.145 30.5687C144.224 31.0173 145.218 31.4757 145.943 32.1096C146.657 32.7343 147.11 33.5285 147.11 34.668H147.51ZM143.302 30.2008C141.939 29.6046 140.839 29.2028 140.063 28.7325C139.68 28.5004 139.394 28.2612 139.204 27.9894C139.016 27.7215 138.914 27.412 138.914 27.024H138.514C138.514 27.49 138.639 27.8805 138.876 28.219C139.111 28.5536 139.448 28.8271 139.856 29.0745C140.662 29.5632 141.816 29.9874 143.142 30.5672L143.302 30.2008ZM138.914 27.024C138.914 26.3625 139.26 25.8449 139.789 25.4848C140.321 25.1221 141.03 24.928 141.71 24.928V24.528C140.962 24.528 140.172 24.7399 139.564 25.1542C138.951 25.5711 138.514 26.2015 138.514 27.024H138.914ZM141.71 24.928C143.29 24.928 144.526 25.804 144.732 27.2208L145.128 27.1632C144.886 25.5 143.434 24.528 141.71 24.528V24.928ZM144.93 27.392H146.274V26.992H144.93V27.392ZM146.473 27.1713C146.236 24.8929 144.31 23.352 141.682 23.352V23.752C144.149 23.752 145.863 25.1791 146.075 27.2127L146.473 27.1713ZM141.682 23.352C140.567 23.352 139.439 23.6844 138.585 24.3074C137.728 24.9331 137.142 25.8571 137.142 27.024H137.542C137.542 26.0069 138.048 25.1949 138.821 24.6306C139.598 24.0636 140.641 23.752 141.682 23.752V23.352ZM137.142 27.024C137.142 28.2031 137.684 29.0332 138.444 29.6503C139.196 30.2602 140.168 30.6688 141.048 31.0179L141.195 30.6461C140.311 30.2952 139.394 29.9058 138.696 29.3397C138.008 28.7808 137.542 28.0569 137.542 27.024H137.142ZM141.044 31.0163C142.587 31.6676 143.762 32.0974 144.565 32.6233C144.96 32.8823 145.25 33.1562 145.443 33.4783C145.634 33.7985 145.738 34.18 145.738 34.668H146.138C146.138 34.12 146.021 33.665 145.786 33.2729C145.553 32.8828 145.211 32.5687 144.784 32.2887C143.941 31.7366 142.708 31.2844 141.199 30.6477L141.044 31.0163ZM145.738 34.668C145.738 35.2959 145.439 35.8394 144.875 36.2329C144.305 36.63 143.46 36.876 142.382 36.876V37.276C143.515 37.276 144.448 37.018 145.104 36.5611C145.764 36.1006 146.138 35.4401 146.138 34.668H145.738ZM142.382 36.876C141.28 36.876 140.411 36.6111 139.756 36.1715C139.102 35.7322 138.652 35.1111 138.399 34.3787L138.021 34.5093C138.3 35.3169 138.801 36.0118 139.533 36.5035C140.265 36.9949 141.215 37.276 142.382 37.276V36.876ZM138.21 34.244H136.866V34.644H138.21V34.244ZM161.764 27.304L161.57 27.3497L161.689 27.861L161.94 27.3994L161.764 27.304ZM151.936 26.968L151.736 26.9734L151.755 27.6593L152.108 27.0709L151.936 26.968ZM151.852 23.832L152.052 23.8266L152.047 23.632H151.852V23.832ZM150.592 23.832V23.632H150.392V23.832H150.592ZM150.592 38H150.392V38.2H150.592V38ZM151.936 38V38.2H152.136V38H151.936ZM151.936 30.636L151.737 30.6195L151.736 30.6278V30.636H151.936ZM160.644 38H160.444V38.2H160.644V38ZM161.988 38V38.2H162.188V38H161.988ZM161.988 30.636L161.789 30.6195L161.788 30.6278V30.636H161.988ZM170.668 38H170.468V38.2H170.668V38ZM172.012 38V38.2H172.212V38H172.012ZM167.28 23.352C164.544 23.352 162.67 25.217 161.588 27.2086L161.94 27.3994C162.987 25.471 164.753 23.752 167.28 23.752V23.352ZM161.959 27.2583C161.685 26.0907 161.134 25.1124 160.33 24.4254C159.524 23.7372 158.475 23.352 157.228 23.352V23.752C158.389 23.752 159.343 24.1088 160.07 24.7296C160.798 25.3516 161.311 26.2493 161.57 27.3497L161.959 27.2583ZM157.228 23.352C154.694 23.352 152.875 25.0142 151.765 26.8651L152.108 27.0709C153.181 25.2818 154.891 23.752 157.228 23.752V23.352ZM152.136 26.9626L152.052 23.8266L151.652 23.8374L151.736 26.9734L152.136 26.9626ZM151.852 23.632H150.592V24.032H151.852V23.632ZM150.392 23.832V38H150.792V23.832H150.392ZM150.592 38.2H151.936V37.8H150.592V38.2ZM152.136 38V30.636H151.736V38H152.136ZM152.136 30.6525C152.259 29.1597 152.779 27.75 153.601 26.7181C154.421 25.6887 155.536 25.04 156.864 25.04V24.64C155.392 24.64 154.169 25.3633 153.288 26.4689C152.409 27.572 151.866 29.0603 151.737 30.6195L152.136 30.6525ZM156.864 25.04C158.01 25.04 158.895 25.4899 159.499 26.2681C160.108 27.0524 160.444 28.1876 160.444 29.572H160.844C160.844 28.1284 160.494 26.8976 159.815 26.0229C159.131 25.1421 158.127 24.64 156.864 24.64V25.04ZM160.444 29.572V38H160.844V29.572H160.444ZM160.644 38.2H161.988V37.8H160.644V38.2ZM162.188 38V30.636H161.788V38H162.188ZM162.188 30.6525C162.311 29.159 162.824 27.7494 163.643 26.7178C164.459 25.689 165.574 25.04 166.916 25.04V24.64C165.431 24.64 164.207 25.363 163.33 26.4692C162.454 27.5726 161.918 29.061 161.789 30.6195L162.188 30.6525ZM166.916 25.04C168.061 25.04 168.939 25.4897 169.537 26.2673C170.139 27.0514 170.468 28.1867 170.468 29.572H170.868C170.868 28.1293 170.526 26.8986 169.854 26.0237C169.177 25.1423 168.179 24.64 166.916 24.64V25.04ZM170.468 29.572V38H170.868V29.572H170.468ZM170.668 38.2H172.012V37.8H170.668V38.2ZM172.212 38V29.236H171.812V38H172.212ZM172.212 29.236C172.212 27.5245 171.777 26.0548 170.936 25.0087C170.091 23.9573 168.849 23.352 167.28 23.352V23.752C168.736 23.752 169.86 24.3087 170.624 25.2593C171.393 26.2152 171.812 27.5875 171.812 29.236H172.212ZM182.514 38.48C186.768 38.48 190.134 35.0865 190.134 30.888H189.734C189.734 34.8655 186.547 38.08 182.514 38.08V38.48ZM190.134 30.888C190.134 26.7446 186.767 23.352 182.514 23.352V23.752C186.548 23.752 189.734 26.9674 189.734 30.888H190.134ZM182.514 23.352C178.234 23.352 174.838 26.7431 174.838 30.888H175.238C175.238 26.9689 178.45 23.752 182.514 23.752V23.352ZM174.838 30.888C174.838 35.0879 178.233 38.48 182.514 38.48V38.08C178.451 38.08 175.238 34.8641 175.238 30.888H174.838ZM182.514 36.792C179.235 36.792 176.582 34.1369 176.582 30.888H176.182C176.182 34.3591 179.016 37.192 182.514 37.192V36.792ZM176.582 30.888C176.582 27.6962 179.234 25.04 182.514 25.04V24.64C179.017 24.64 176.182 27.4718 176.182 30.888H176.582ZM182.514 25.04C185.763 25.04 188.39 27.6945 188.39 30.888H188.79C188.79 27.4735 185.984 24.64 182.514 24.64V25.04ZM188.39 30.888C188.39 34.1387 185.762 36.792 182.514 36.792V37.192C185.985 37.192 188.79 34.3573 188.79 30.888H188.39ZM192.374 34.444V34.244H192.127L192.178 34.485L192.374 34.444ZM198.73 30.384L198.649 30.5673L198.653 30.5687L198.73 30.384ZM200.438 27.192L200.24 27.2208L200.265 27.392H200.438V27.192ZM201.782 27.192V27.392H202.003L201.98 27.1713L201.782 27.192ZM196.63 30.832L196.707 30.6477L196.703 30.6461L196.63 30.832ZM193.718 34.444L193.907 34.3787L193.86 34.244H193.718V34.444ZM192.178 34.485C192.706 37.0099 194.91 38.48 197.862 38.48V38.08C195.045 38.08 193.049 36.6941 192.569 34.403L192.178 34.485ZM197.862 38.48C199.39 38.48 200.674 38.1016 201.582 37.433C202.493 36.7613 203.018 35.8003 203.018 34.668H202.618C202.618 35.6637 202.162 36.5087 201.344 37.111C200.523 37.7164 199.329 38.08 197.862 38.08V38.48ZM203.018 34.668C203.018 33.3995 202.504 32.4997 201.714 31.8084C200.934 31.1263 199.883 30.6467 198.806 30.1993L198.653 30.5687C199.732 31.0173 200.725 31.4757 201.45 32.1096C202.165 32.7343 202.618 33.5285 202.618 34.668H203.018ZM198.81 30.2008C197.447 29.6046 196.347 29.2028 195.571 28.7325C195.188 28.5004 194.902 28.2612 194.712 27.9894C194.524 27.7215 194.422 27.412 194.422 27.024H194.022C194.022 27.49 194.147 27.8805 194.384 28.219C194.619 28.5536 194.956 28.8271 195.364 29.0745C196.17 29.5632 197.324 29.9874 198.649 30.5672L198.81 30.2008ZM194.422 27.024C194.422 26.3625 194.768 25.8449 195.297 25.4848C195.829 25.1221 196.538 24.928 197.218 24.928V24.528C196.469 24.528 195.68 24.7399 195.071 25.1542C194.459 25.5711 194.022 26.2015 194.022 27.024H194.422ZM197.218 24.928C198.798 24.928 200.034 25.804 200.24 27.2208L200.635 27.1632C200.394 25.5 198.941 24.528 197.218 24.528V24.928ZM200.438 27.392H201.782V26.992H200.438V27.392ZM201.98 27.1713C201.744 24.8929 199.818 23.352 197.19 23.352V23.752C199.657 23.752 201.371 25.1791 201.583 27.2127L201.98 27.1713ZM197.19 23.352C196.075 23.352 194.947 23.6844 194.093 24.3074C193.236 24.9331 192.65 25.8571 192.65 27.024H193.05C193.05 26.0069 193.555 25.1949 194.329 24.6306C195.106 24.0636 196.148 23.752 197.19 23.752V23.352ZM192.65 27.024C192.65 28.2031 193.192 29.0332 193.952 29.6503C194.703 30.2602 195.676 30.6688 196.556 31.0179L196.703 30.6461C195.819 30.2952 194.902 29.9058 194.204 29.3397C193.515 28.7808 193.05 28.0569 193.05 27.024H192.65ZM196.552 31.0163C198.095 31.6676 199.27 32.0974 200.072 32.6233C200.468 32.8823 200.758 33.1562 200.951 33.4783C201.142 33.7985 201.246 34.18 201.246 34.668H201.646C201.646 34.12 201.528 33.665 201.294 33.2729C201.06 32.8828 200.719 32.5687 200.292 32.2887C199.449 31.7366 198.216 31.2844 196.707 30.6477L196.552 31.0163ZM201.246 34.668C201.246 35.2959 200.947 35.8394 200.383 36.2329C199.813 36.63 198.968 36.876 197.89 36.876V37.276C199.023 37.276 199.956 37.018 200.611 36.5611C201.272 36.1006 201.646 35.4401 201.646 34.668H201.246ZM197.89 36.876C196.788 36.876 195.918 36.6111 195.264 36.1715C194.61 35.7322 194.16 35.1111 193.907 34.3787L193.528 34.5093C193.807 35.3169 194.309 36.0118 195.041 36.5035C195.773 36.9949 196.723 37.276 197.89 37.276V36.876ZM193.718 34.244H192.374V34.644H193.718V34.244Z" fill="black"/>
</g>
<defs>
<linearGradient id="paint0_linear" x1="4.49" y1="47.36" x2="38.94" y2="12.92" gradientUnits="userSpaceOnUse">
<stop stop-color="#20419A"/>
<stop offset="1" stop-color="#EF6823"/>
</linearGradient>
<clipPath id="clip0">
<rect width="218" height="60.41" fill="white"/>
</clipPath>
</defs>
</svg>
